<?xml version="1.0" standalone="no"?>
<!DOCTYPE svg PUBLIC "-//W3C//DTD SVG 1.1//EN" "http://www.w3.org/Graphics/SVG/1.1/DTD/svg11.dtd">
<svg width="1080px" height="1431px" version="1.1" xmlns="http://www.w3.org/2000/svg" xmlns:xlink="http://www.w3.org/1999/xlink" xml:space="preserve" style="fill-rule:evenodd;clip-rule:evenodd;stroke-linejoin:round;stroke-miterlimit:1.41421;">
    <style>
        @media (prefers-color-scheme: dark) {
            :root {
                filter: invert(100%) hue-rotate(180deg);
            }
        }
    </style>
    <g>
        <g id="image">
            <g id="face">
                <g>
                    <path d="M53.1667,433.227C55.3371,430.912 55.3092,430.693 53.1667,429.17L53.1667,433.227ZM130.46,641.97C129.211,641.617 128.185,641.535 127.296,643.197C128.211,643.687 129.021,644.119 130.08,644.686C130.24,643.533 130.338,642.842 130.46,641.97M176.468,628.672C174.911,627.523 173.8,626.702 172.726,625.906C171.381,627.063 171.501,628.057 172.437,629.124C173.668,630.525 174.733,629.556 176.468,628.672M774.883,177.7C772.815,176.151 771.162,174.916 769.293,173.517C768.878,174.382 768.594,174.966 768.244,175.691C770.283,176.646 771.754,178.499 774.883,177.7M247.271,886.518C246.987,882.197 246.828,882.005 243.992,882.319C243.708,886.212 243.932,886.528 247.271,886.518M1026.87,517.185C1022.12,516.349 1020.44,517.718 1021.32,521.154C1021.44,521.655 1021.85,522.313 1022.27,522.451C1022.67,522.581 1023.46,522.277 1023.74,521.907C1024.78,520.514 1025.68,519.017 1026.87,517.185M131.603,354.803C129.924,355.506 128.549,355.832 127.5,356.601C126.676,357.205 125.623,358.528 125.811,359.225C126.045,360.095 127.35,360.964 128.363,361.28C130.743,362.025 132.254,360.856 132.358,358.33C132.396,357.439 131.99,356.527 131.603,354.803M949.728,669.63C949.398,669.504 949.068,669.376 948.741,669.25C947.743,670.367 946.702,671.451 945.757,672.612C943.569,675.298 944.556,678.21 948.591,679.744C948.981,676.283 949.352,672.955 949.728,669.63M899.541,231.398C900.279,237.443 902.875,239.702 906.932,237.823C906.806,232.585 904.016,230.159 899.541,231.398M266.685,772.204C266.535,772.244 266.385,772.284 266.233,772.326C266.977,775.152 267.518,778.06 268.587,780.758C268.919,781.591 270.674,782.195 271.805,782.241C272.451,782.267 273.68,780.998 273.74,780.24C274.061,776.119 272.964,772.264 270.642,768.853C270.242,768.267 268.921,767.843 268.24,768.049C267.578,768.251 267.041,769.3 266.733,770.09C266.493,770.707 266.685,771.493 266.685,772.204M265.266,815.78C265.694,814.497 265.967,813.757 266.185,813.002C266.479,811.989 266.599,810.905 267.019,809.952C269.107,805.204 267.27,799.848 262.624,797.338C260.857,799.008 260.469,800.493 260.693,802.935C261.097,807.35 262.72,811.307 265.266,815.78M106.497,604.392C107.317,599.544 102.564,592.353 98.1515,591.492C96.3208,591.136 95.3755,591.943 95.1577,594.05C94.5262,600.143 99.5924,604.868 106.497,604.392M44.0175,393.388C47.4789,392.881 50.153,391.134 50.7725,387.015C50.9983,385.504 51.2502,383.977 51.2482,382.458C51.2442,381.003 50.6766,379.714 49.1957,379.047C47.7168,378.379 46.9893,379.484 46.2139,380.338C45.3405,381.301 44.671,382.462 43.7417,383.362C41.4074,385.618 40.5121,388.881 41.7572,391.673C42.1709,392.603 42.6905,393.712 44.0175,393.388M836.234,448.747C835.189,450.08 835.075,451.567 835.734,453.074C837.253,456.549 838.816,459.963 841.252,462.989C843.147,465.335 845.271,465.895 848.035,465.563C845.115,454.859 841.618,449.894 836.234,448.747M111.642,610.288C111.59,610.294 111.538,610.302 111.486,610.308C111.707,611.831 111.769,613.397 112.185,614.866C113.334,618.933 117.855,621.432 121.958,620.402C124.198,619.839 126.588,617.273 126.035,615.816C124.112,610.755 121.536,606.391 115.335,605.753C112.407,605.451 111.793,605.797 111.646,608.859C111.624,609.334 111.642,609.81 111.642,610.288M212.595,658.096L213.482,657.361C212.939,655.98 212.469,654.567 211.837,653.23C211.08,651.629 209.885,650.178 209.417,648.51C208.472,645.158 206.493,642.554 204.189,640.116C202.638,638.473 200.983,636.93 199.419,635.299C197.314,633.111 194.702,632.859 192.358,634.782C191.868,635.183 191.327,635.963 191.381,636.512C191.688,639.61 192.338,642.79 194.68,644.918C198.621,648.5 202.834,651.793 207.067,655.031C208.722,656.298 210.742,657.089 212.595,658.096M228.589,749.071C228.855,751.575 229.245,753.534 229.227,755.49C229.201,758.182 229.251,760.976 228.559,763.535C227.796,766.366 228.325,768.759 229.808,770.969C230.362,771.796 231.751,772.532 232.738,772.506C234.848,772.448 237.009,772.08 239.031,771.455C242.799,770.29 244.208,767.152 243.126,763.321C242.525,761.19 241.551,759.372 239.859,757.933C237.047,755.542 234.281,753.102 231.447,750.74C230.761,750.168 229.89,749.819 228.589,749.071M771.204,381.663C771.176,377.538 769.101,375.659 765.718,376.629C762.422,377.57 759.203,378.875 756.097,380.336C752.578,381.989 751.762,385.086 753.887,388.308C756.101,391.669 759.161,394.134 762.842,395.77C763.46,396.044 764.213,396.078 764.907,396.094C767.713,396.162 769.123,394.224 769.639,391.979C770.458,388.414 770.762,384.729 771.204,381.663M1011.6,391.565C1011.51,388.016 1010.59,385.498 1008.86,383.356C1004.38,377.778 1000.09,372.022 994.699,367.243C993.807,366.456 992.72,365.793 992.083,364.831C988.937,360.075 985.577,355.412 982.943,350.376C980.707,346.099 977.254,343.107 973.924,339.94C972.637,338.715 970.942,337.513 968.326,338.553C972.167,344.512 975.005,350.844 979.386,356.214C985.114,363.236 991.197,369.977 996.757,377.126C1000.89,382.436 1005.76,386.855 1011.6,391.565M305.67,331.256C308.692,330.69 308.648,330.75 311.422,332.719C312.469,333.462 313.73,333.958 314.959,334.382C318.317,335.543 319.672,334.875 320.163,331.424C320.597,328.378 320.535,325.263 320.757,322.183C320.907,320.112 321.171,318.054 321.344,316.373C319.734,315.861 318.431,315.678 317.367,315.068C314.334,313.333 311.116,312.264 307.679,311.685C305.53,311.319 303.592,312.436 303.951,314.494C304.389,316.991 303.386,319.179 303.236,321.503C303.016,324.959 302.313,328.69 305.67,331.256M217.03,742.238C213.282,740.563 209.555,739.009 205.932,737.242C203.394,736.003 201.035,735.457 198.146,736.341C194.29,737.518 192.822,739.226 193.797,743.022C194.073,744.099 194.906,745.082 195.637,745.983C198.323,749.299 201.025,752.607 203.825,755.826C205.374,757.609 207.021,759.344 208.834,760.846C210.223,762 212.487,761.598 213.118,760.091C214.442,756.941 215.749,753.734 216.536,750.426C217.122,747.97 216.878,745.316 217.03,742.238M110.305,366.964C106.709,367.709 105.304,369.292 104.725,373.803C103.811,380.917 106.423,386.637 111.831,391.192C112.825,392.029 113.77,392.93 114.817,393.696C117.551,395.696 117.793,398.49 117.014,401.364C116.368,403.746 115.081,405.949 114.348,408.315C113.796,410.088 112.971,412.246 113.52,413.785C114.461,416.425 116.382,418.717 117.891,421.154C118.147,421.108 118.403,421.062 118.658,421.014C119.08,415.929 121.844,411.85 124.028,407.518C125.529,404.532 127.174,401.584 128.307,398.456C129.31,395.69 129.894,392.729 130.286,389.803C130.566,387.72 129.195,387.007 127.382,388.02C126.868,388.306 126.511,388.881 125.989,389.131C124.772,389.711 123.501,390.175 121.97,390.802C121.326,387.243 120.875,384.199 120.197,381.207C119.861,379.722 119.386,378.119 118.49,376.938C115.918,373.543 113.1,370.335 110.305,366.964M63.9608,486.224C64.0647,486.235 64.1666,486.249 64.2705,486.263C64.2705,487.816 64.1466,489.383 64.2985,490.922C64.5863,493.85 66.5928,495.585 69.039,496.692C71.3813,497.753 73.162,495.996 74.1592,494.427C76.6074,490.578 78.8098,486.493 80.6424,482.364C82.7329,477.654 83.7102,472.416 84.8773,467.339C85.4629,464.787 86.5581,463.177 89.2261,462.977C90.697,462.869 91.6063,461.848 91.5584,460.742C91.5164,459.773 90.6091,458.67 89.7977,457.952C89.0322,457.277 87.9171,456.955 86.9118,456.603C82.3032,454.989 77.6846,452.848 72.8882,455.976C71.0016,457.205 69.1869,458.562 67.4262,459.969C65.5916,461.434 65.024,463.38 65.5116,465.703C66.2331,469.128 66.0732,472.508 65.3158,475.965C64.5783,479.321 64.3904,482.8 63.9608,486.224M211.674,238.539C210.089,238.73 208.768,238.744 207.531,239.076C206.176,239.438 204.661,239.808 203.624,240.665C197.616,245.641 190.231,248.297 183.842,252.606C181.682,254.063 179.17,255.342 177.647,257.335C175.031,260.758 175.185,264.863 176.562,268.876C177.369,271.232 178.792,273.551 178.896,275.931C179.016,278.717 179.583,281.215 180.469,283.809C181.152,285.81 182.443,286.675 184.234,287.133C188.547,288.234 192.881,286.155 194.75,281.827C195.973,278.993 196.657,275.929 197.798,273.053C199.377,269.066 201.277,265.203 202.814,261.2C204.239,257.491 206.194,254.167 208.494,250.927C211.012,247.378 213.049,243.477 211.674,238.539M183.904,698.495C185.567,699.09 186.78,699.59 188.031,699.961C190.841,700.797 193.321,699.564 195.42,698.093C197.182,696.856 196.393,694.641 196.033,692.767C195.651,690.778 195.422,688.76 195.038,686.773C194.504,684.015 194.888,681.921 197.966,680.788C200.136,679.986 200.981,678.182 200.967,675.651C200.943,671.856 199.205,668.777 197.716,665.539C193.613,656.614 185.563,651.993 177.657,647.272C175.344,645.891 172.83,647.187 172.179,649.817C171.809,651.309 171.687,652.862 171.463,654.391C171.225,656.026 171.671,657.397 172.828,658.638C174.045,659.939 175.167,661.35 176.204,662.801C177.573,664.716 178.232,666.738 177.251,669.152C176.729,670.437 176.41,671.96 176.532,673.327C177.035,679.005 176.657,684.763 178.06,690.371C178.334,691.462 178.388,692.813 177.974,693.806C177.661,694.559 176.442,694.933 175.516,695.549C175.724,697.861 176.789,699.68 179.092,700.327C180.938,700.845 182.979,701.113 183.904,698.495M925.22,755.419C926.893,756.05 928.686,756.462 930.19,757.355C932.723,758.854 935.504,760.277 937.393,762.427C939.871,765.247 941.482,768.813 943.672,771.914C944.812,773.527 946.28,774.962 947.807,776.231C949.048,777.266 950.423,776.829 951.027,775.348C952.508,771.716 954.486,768.123 955.094,764.328C956.751,754 956.249,743.637 953.673,733.463C953.067,731.065 951.888,728.812 950.967,726.496C950.401,725.077 949.834,723.658 949.25,722.247C948.165,719.623 947.628,716.501 945.835,714.515C943.571,712.005 941.448,709.578 940.347,706.115C937.927,706.239 935.261,707.728 933.496,704.984C933.478,696.09 933.016,693.708 930.352,689.032C928.272,690.538 927.698,692.965 926.713,695.055C925.034,698.609 926.087,701.962 929.089,704.564C931.441,706.603 932.77,709.243 933.09,712.428C933.398,715.494 933.834,718.554 935.56,721.268C936.322,722.467 936.853,723.818 937.405,725.137C938.82,728.526 938.334,730.513 935.411,732.879C934.307,733.775 933.09,734.572 931.823,735.213C929.613,736.333 927.325,737.296 925.22,738.255L925.22,755.419ZM365.714,426.554L365.844,427.155C366.803,426.735 367.82,426.412 368.715,425.88C373.744,422.9 378.794,419.949 383.728,416.821C386.129,415.296 388.431,413.555 390.539,411.649C392.994,409.426 392.948,407.378 390.391,405.413C387.663,403.319 384.718,401.496 381.818,399.636C381.146,399.204 380.287,399.006 379.484,398.854C373.876,397.787 368.174,397.131 362.992,394.405C362.042,393.908 360.354,393.604 359.63,394.108C357.452,395.62 355.369,395.421 353.203,394.511C351.446,393.776 350.493,394.453 349.246,395.754C346.638,398.47 345.491,401.822 344.527,405.245C343.864,407.602 342.763,409.25 340.494,410.312C339.133,410.947 337.816,411.956 336.863,413.116C335.124,415.228 333.603,417.534 332.127,419.845C331.637,420.608 331.369,421.625 331.329,422.543C331.217,425.127 331.347,427.721 331.253,430.307C331.091,434.746 334.145,436.784 337.545,437.997C340.183,438.938 342.435,437.04 344.385,435.265C344.651,435.023 344.905,434.768 345.147,434.506C348.424,430.938 352.647,428.748 357.082,427.269C359.742,426.382 362.822,426.749 365.714,426.554M223.719,773.953C220.425,779.077 219.382,785.159 217.311,790.832C215.944,794.578 217.072,798.429 217.317,802.164C218.003,812.518 219.911,822.731 222.695,832.721C223.567,835.847 225.525,838.763 227.402,841.489C229.125,843.993 233.951,844.555 235.282,842.438C238.124,837.914 242.715,834.626 244.443,829.352C244.819,828.205 245.594,827.609 246.786,827.453C247.843,827.315 248.888,827.088 250.117,826.868C251.58,829.238 253.898,829.152 256.65,829.052C256.472,826.854 256.207,824.889 256.171,822.919C256.041,815.87 255.995,808.819 255.905,801.768C255.891,800.619 255.823,799.47 255.793,798.665C250.965,797.963 246.566,797.549 242.273,796.63C238.804,795.887 235.378,794.743 232.09,793.392C228.663,791.987 228.181,790.359 228.333,786.645C228.469,783.37 228.227,780.052 227.838,776.791C227.536,774.271 226.89,773.993 223.719,773.953M1027.88,448.324C1030.24,445.781 1031.35,443.175 1031.84,440.309C1032.29,437.617 1032.58,434.895 1032.97,432.191C1033.41,429.138 1034.15,426.096 1034.27,423.03C1034.44,418.522 1034.19,417.706 1030.33,416.287C1024.9,414.291 1020.37,410.981 1016.79,406.225C1014.09,402.629 1010.69,399.552 1007.61,396.24C1004.74,393.148 1001.72,394.629 1000.12,397.699C999.339,399.198 999.115,401.108 999.075,402.841C999.006,405.851 996.607,406.732 994.721,408.043C993.248,409.069 992.013,408.305 990.544,407.42C987.458,405.563 983.347,405.979 980.665,409.326C977.677,413.056 976.056,417.408 974.558,421.779C972.809,426.875 970.421,431.378 965.97,434.602C964.999,435.305 963.863,436.292 964.481,437.541C964.927,438.441 966.074,439.312 967.065,439.558C969,440.034 971.042,440.172 973.047,440.249C975.527,440.347 978.013,440.226 980.497,440.228C982.39,440.23 984.396,439.87 986.145,440.379C992.091,442.106 997.968,444.077 1003.82,446.091C1010.14,448.262 1013.25,446.767 1015.16,440.401C1015.4,439.604 1015.44,438.735 1015.75,437.973C1016.58,435.971 1017.51,434.008 1018.4,432.028C1018.66,432.01 1018.91,431.992 1019.16,431.974C1018.84,439.18 1019.77,445.673 1027.88,448.324M110.305,538.865C110.4,537.588 110.458,536.39 110.588,535.199C110.712,534.064 110.624,532.783 111.126,531.832C112.785,528.696 112.937,525.335 112.299,522.087C111.705,519.047 111.881,516.195 112.539,513.272C113.322,509.794 113.804,506.215 114.959,502.867C116.162,499.374 115.87,496.11 114.857,492.743C113.18,487.167 111.56,481.575 109.837,476.013C109.529,475.016 108.952,474.057 108.322,473.211C106.723,471.061 105.1,470.833 102.83,472.326C99.0208,474.832 96.5227,478.447 95.9731,482.828C94.752,492.567 89.4959,500.095 83.5343,507.332C79.1615,512.636 73.9054,517.183 71.2993,523.92C69.6106,528.288 69.7305,532.283 71.3713,536.398C72.6963,539.716 74.503,540.837 78.1023,540.401C80.9002,540.066 83.5543,540.266 86.2323,541.077C87.939,541.595 89.7057,541.952 91.4684,542.236C94.2004,542.674 94.8759,542.226 96.3548,539.754C97.8097,537.324 99.3746,534.959 100.937,532.495C103.571,532.971 105.848,533.381 108.61,533.878C108.206,536.52 108.326,538.919 107.447,540.869C105.082,546.131 104.155,551.781 102.538,557.235C101.755,559.877 102.474,562.243 104.887,564.194C108.342,566.988 111.965,567.803 116.226,566.686C120.227,565.637 121.602,563.686 120.761,559.655C120.567,558.724 120.357,557.769 119.961,556.911C117.919,552.483 115.9,548.038 113.688,543.693C112.805,541.96 111.448,540.467 110.305,538.865M724.017,115.803C724.195,116.691 724.151,118.136 724.756,119.213C726.863,122.942 728.937,126.735 731.499,130.149C736.462,136.768 742.803,142.064 749.008,147.478C754.204,152.013 759.928,155.578 766.495,157.694C768.638,158.384 771.054,159.551 773.049,159.121C778.682,157.908 784.7,157.333 789.103,152.814C789.658,152.244 790.458,151.725 791.223,151.579C794.421,150.969 795.41,148.731 795.654,145.897C795.96,142.322 796.401,138.852 799.131,136.088C800.021,135.191 800.418,133.818 801.094,132.693C801.639,131.782 802.197,130.86 802.873,130.043C804.681,127.856 804.755,126.431 802.553,124.613C801.43,123.682 799.879,123.074 798.428,122.77C795.398,122.137 792.262,121.999 789.259,121.283C786.756,120.688 784.348,119.633 781.962,118.631C780.545,118.036 779.308,117.018 777.895,116.411C772.095,113.917 766.196,111.646 760.456,109.02C755.839,106.906 751.151,105.561 746.049,105.241C740.081,104.867 734.347,105.389 729.015,108.189C726.197,109.67 724.145,111.884 724.017,115.803M861.539,188.807C863.062,189.235 864.853,189.349 866.192,190.186C870.718,193.02 875.543,195.403 879.196,199.565C880.869,201.47 883.265,202.873 885.559,204.066C888.219,205.451 890.158,204.744 891.483,202.05C892.95,199.07 894.257,195.986 895.336,192.848C896.539,189.355 895.362,187.832 891.587,187.328C890.422,187.173 889.161,187.073 888.141,186.555C880.453,182.662 872.187,182.214 863.817,182.316C863.118,182.324 862.187,182.248 861.767,182.644C860.898,183.457 860.266,183.397 859.287,182.878C855.739,181.001 851.9,179.582 848.603,177.348C842.385,173.133 835.98,172.923 829.137,175.185C827.227,175.817 825.192,176.526 823.233,176.478C818.599,176.363 813.974,175.819 809.346,175.441C804.831,175.072 800.314,174.57 795.88,176.027C793.855,176.692 791.843,177.398 789.798,177.999C787.114,178.791 784.402,179.498 781.017,180.432C777.221,178.897 777.162,178.915 775.353,182.948C776.752,183.831 778.145,184.904 779.698,185.65C783.119,187.29 786.605,188.803 790.094,190.294C791.407,190.854 792.792,191.256 794.167,191.651C799.081,193.06 804.166,194.137 807.263,198.86C807.515,199.244 807.981,199.485 808.348,199.791C811.19,202.168 811.962,205.351 811.532,208.809C811.35,210.301 810.331,211.754 811.712,213.099C812.891,214.249 814.018,215.658 815.455,216.293C818.049,217.436 820.855,218.102 823.583,218.943C826.397,219.812 829.171,219.685 832.055,218.999C837.495,217.704 842.963,216.415 848.495,215.65C851.9,215.178 855.544,214.836 858.587,216.429C859.473,219.944 860.106,223.108 861.099,226.158C861.675,227.924 862.456,229.947 863.799,231.08C866.507,233.366 869.459,235.581 872.673,237.008C880.433,240.455 888.627,235.057 888.423,226.817C888.377,224.977 887.398,223.178 887.054,221.323C886.063,215.975 882.372,213.663 877.529,212.436C873.197,211.339 868.59,211.055 864.885,208.037C862.385,206.003 859.221,204.25 858.621,200.976C857.878,196.915 857.574,192.567 861.539,188.807M779.488,253.278C778.812,250.05 778.115,246.321 777.237,242.634C776.176,238.159 773.776,234.464 769.835,232.067C764.479,228.808 759.812,224.795 755.474,220.306C749.748,214.388 743.67,208.805 738.142,202.717C735.045,199.308 731.709,196.374 727.834,193.988C725.44,192.513 722.092,192.748 720.274,194.771C718.863,196.344 717.578,198.122 716.644,200.011C715.009,203.323 713.591,206.752 712.261,210.202C711.018,213.425 709.935,216.705 710.203,220.282C710.287,221.431 710.003,222.656 709.665,223.78C708.218,228.604 707.295,233.498 707.379,238.553C707.463,243.715 709.246,245.382 714.306,245.4C716.666,245.408 719.028,245.745 721.385,245.999C725.34,246.425 726.071,249.674 726.859,252.644C727.496,255.044 725.851,257.964 723.259,259.353C721.513,260.289 720.711,261.624 720.244,263.498C719.584,266.134 720.256,268.548 721.447,270.693C723.525,274.436 725.965,277.981 728.304,281.579C728.609,282.046 729.183,282.364 729.675,282.684C731.076,283.597 732.437,284.595 733.921,285.34C736.186,286.477 737.715,288.078 738.382,290.586C738.602,291.416 739.284,292.335 740.017,292.775C742.305,294.148 744.214,295.83 745.809,297.989C746.324,298.69 747.699,299.35 748.469,299.162C750.515,298.662 752.632,297.975 754.38,296.84C757.164,295.033 759.648,292.767 762.322,290.778C762.918,290.334 763.745,290.144 764.499,289.979C767.251,289.371 769.763,288.406 771.176,285.73C771.955,284.257 772.671,282.754 773.418,281.265C775.419,277.292 776.664,273.091 777.237,268.682C777.591,265.976 777.927,263.266 778.317,260.564C778.638,258.334 779.03,256.114 779.488,253.278M166.417,260.279C166.469,256.447 165.53,255.522 162.346,256.305C160.296,256.811 158.215,257.601 156.436,258.72C153.317,260.68 150.287,262.839 147.457,265.199C144.289,267.843 140.854,269.923 136.963,271.202C130.619,273.285 124.23,275.221 117.879,277.28C114.364,278.419 110.962,280.112 107.367,280.753C104.035,281.345 102.145,283.224 100.434,285.708C96.9124,290.816 93.5349,296.034 89.8296,301.004C86.3062,305.733 85.7227,310.933 86.3662,316.515C87.0517,322.463 86.2603,328.036 82.9567,333.281C80.5665,337.076 78.3022,341.045 77.8585,345.735C77.7146,347.25 77.131,348.749 76.5894,350.198C75.3264,353.578 73.3898,356.132 69.4967,357.001C66.2111,357.738 63.0994,359.301 61.3607,362.403C59.4581,365.799 56.7701,368.429 54.0281,371.081C51.8217,373.213 50.8125,376.069 51.6179,378.931C52.3114,381.393 53.6464,383.881 55.3331,385.8C56.9919,387.686 57.2058,389.355 56.7441,391.615C56.2345,394.106 54.8095,395.942 53.1927,397.695C51.6519,399.362 49.9671,400.895 48.3923,402.531C45.0507,405.995 44.5871,408.937 47.3391,412.768C53.0368,420.698 58.297,428.956 64.7102,436.36C66.5069,438.433 68.2936,440.517 70.1602,442.528C72.2966,444.83 74.8867,446.125 78.1323,445.735C78.3681,445.707 78.6219,445.775 78.8478,445.721C84.8613,444.308 89.7857,447.116 94.6861,449.876C97.6359,451.537 99.1887,451.573 101.237,448.995C103.971,445.552 106.535,441.958 108.956,438.287C110.452,436.015 111.711,433.548 112.783,431.042C114.112,427.931 113.42,425.063 111.258,422.417C109.989,420.864 108.934,419.107 107.976,417.334C105.834,413.361 103.727,409.36 101.793,405.281C101.275,404.192 100.871,402.471 101.375,401.584C102.768,399.132 102.003,396.985 101.201,394.737C100.358,392.375 99.5125,390.015 98.6191,387.674C96.127,381.131 94.814,374.408 95.9691,367.421C96.7046,362.973 97.7578,358.742 101.197,355.226C105.45,350.876 108.772,345.733 111.444,340.205C113.878,335.165 116.358,330.147 120.603,326.25C121.378,325.536 121.702,324.175 121.93,323.05C122.613,319.671 123.403,316.281 123.659,312.86C123.884,309.84 125.493,307.622 127.768,306.568C131.723,304.734 133.337,301.176 135.55,297.987C136.433,296.712 137.271,295.405 138.166,294.14C143.146,287.103 149.114,280.921 155.047,274.712C156.688,272.995 158.487,271.538 160.549,270.243C164.271,267.907 166.219,264.226 166.417,260.279M944.086,423.152C947.512,420.182 949.938,414.397 949.142,410.318C947.584,402.332 947.795,394.24 947.426,386.179C947.246,382.244 947.292,378.299 947.066,374.366C946.496,364.495 945.815,354.631 945.213,344.76C945.149,343.697 945.377,342.618 945.351,341.546C945.317,340.034 945.473,338.427 945.019,337.03C943.291,331.702 941.332,326.452 939.512,321.154C939.128,320.038 938.992,318.839 938.694,317.69C937.257,312.118 935.397,306.82 930.93,302.757C928.208,300.285 925.134,297.807 923.447,294.671C919.612,287.542 913.561,283.411 906.436,280.661C898.989,277.788 891.381,275.315 883.761,272.923C878.72,271.34 873.624,270.749 868.37,272.757C866.418,273.505 864.115,272.963 862.327,270.913C856.537,264.268 849.078,260.566 840.393,259.233C838.544,258.95 836.923,259.181 835.241,260.067C832.267,261.632 831.329,264.435 830.412,267.287C828.258,273.978 826.367,280.767 823.945,287.359C821.529,293.934 817.618,299.699 812.268,304.262C809.226,306.856 807.029,310.022 805.916,313.607C804.042,319.629 802.687,325.836 801.474,332.035C800.099,339.072 798.891,346.103 794.984,352.328C794.113,353.721 793.565,355.332 792.974,356.885C790.745,362.731 789.776,368.824 789.41,375.048C789.235,378.039 788.305,380.789 786.794,383.455C784.92,386.769 784.454,390.266 786.025,394.078C788.065,399.036 791.333,403.065 794.593,407.19C800.818,415.068 809.298,419.933 817.752,424.839C819.542,425.878 821.021,425.281 821.799,423.366C822.42,421.831 822.91,420.192 823.124,418.556C823.765,413.647 825.042,408.957 827.64,404.72C830.754,399.646 833.828,394.537 837.207,389.643C839.228,386.723 841.74,384.125 844.174,381.519C844.845,380.803 846.007,380.36 847.012,380.182C848.627,379.892 850.297,379.93 851.892,379.832C854.267,384.874 853.535,389.751 851.193,394.319C847.713,401.108 843.986,407.776 840.145,414.369C839.018,416.301 838.772,417.924 839.302,420.078C840.557,425.207 842.789,429.897 844.839,434.718C847.198,440.257 849.836,445.562 853.509,450.298C855.17,452.438 857.282,454.231 859.201,456.172C860.446,457.435 861.737,458.652 862.952,459.941C863.859,460.902 863.73,462.001 863.484,463.264C863.126,465.111 861.529,465.551 860.408,466.536C858.014,468.639 855.184,470.495 855.304,474.2C855.352,475.727 855.55,477.346 856.123,478.739C857.898,483.04 859.671,487.367 861.861,491.46C863.48,494.483 866.046,497.002 867.661,500.027C870.465,505.277 872.945,510.707 875.361,516.149C875.958,517.492 876.056,519.201 875.917,520.7C875.371,526.662 875.095,532.527 877.196,538.341C879.624,545.066 881.694,551.875 886.169,557.703C888.008,560.095 889.576,563.059 890.146,565.983C891.047,570.611 891.617,575.38 890.786,580.186C890.278,583.108 889.996,586.102 889.972,589.067C889.94,593.224 889.956,597.417 890.464,601.532C891.355,608.725 892.322,615.938 893.845,623.016C895.24,629.508 897.517,635.763 896.431,642.626C895.348,649.483 897.722,656.08 898.664,662.777C898.752,663.403 899.417,663.944 899.625,664.248C903.482,663.594 904.635,660.77 906.082,658.364C909.967,651.905 914.198,645.708 919.542,640.366C921.663,638.247 923.112,635.817 923.559,632.947C924.051,629.789 924.387,626.562 924.325,623.374C924.195,616.821 923.773,610.274 923.413,603.727C923.385,603.227 922.886,602.751 922.776,602.56C921.191,602.953 919.866,603.571 918.555,603.541C916.511,603.493 915.467,604.322 914.894,606.187C914.518,607.406 914.074,608.727 912.418,608.773C910.591,605.575 910.993,600.867 913.219,596.926C914.568,594.535 916.163,592.261 919.069,592.259C921.681,592.259 923.186,590.88 924.241,589.055C927.562,583.302 930.019,577.264 928.652,570.375C927.634,565.241 923.937,559.341 917.43,558.37C913.573,557.795 910.613,555.878 908.992,552.029C907.411,548.268 905.181,544.872 902.165,542.032C901.222,541.143 900.374,540.09 899.711,538.975C898.3,536.6 899.077,534.862 902.191,534.076C902.945,533.886 903.898,534.05 904.639,534.348C908.794,536.013 912.436,538.411 915.353,541.888C918.547,545.7 921.847,549.429 925.148,553.148C925.604,553.658 926.309,553.989 926.955,554.273C930.482,555.826 932.994,558.486 935.035,561.646C937.495,565.451 939.957,569.254 942.309,573.123C943.039,574.328 943.936,574.752 945.233,574.63C948.791,574.296 949.45,573.581 949.494,569.916C949.506,568.84 949.274,567.747 949.41,566.696C949.832,563.4 950.168,560.071 950.969,556.861C951.303,555.522 952.486,554.059 953.691,553.332C958.254,550.576 960.654,546.185 962.834,541.679C963.502,540.302 963.298,538.459 963.326,536.826C963.376,533.85 963.298,530.869 963.284,527.891C963.274,525.768 963.286,523.644 963.278,521.519C963.268,518.338 963.088,515.146 963.288,511.978C963.444,509.468 964.297,507.104 965.942,505.07C967.167,503.559 968.594,503.071 970.355,503.864C972.189,504.692 973.99,505.597 975.785,506.515C979.124,508.223 980.475,511.079 979.634,514.704C979.394,515.742 979.104,516.795 978.645,517.746C976.91,521.32 977.743,524.411 980.221,527.273C981.155,528.354 982.16,529.406 982.903,530.615C984.47,533.153 986.711,533.768 989.391,533.063C992.047,532.361 994.789,531.768 997.253,530.615C1001.04,528.846 1004.04,526.04 1004.66,521.665C1005.23,517.594 1004.63,513.583 1002.95,509.758C1002.04,507.686 1001.23,505.563 1000.49,503.425C999.867,501.598 999.401,499.72 998.814,497.685C1005.49,498.822 1008.54,497.171 1011.13,491.368C1011.53,490.496 1011.89,489.579 1012.47,488.842C1015.52,484.958 1017.65,480.58 1019.62,476.097C1020.74,473.533 1020.25,472.09 1017.7,470.947C1017.05,470.659 1016.31,470.583 1015.62,470.399C1009.87,468.862 1004.04,467.563 998.406,465.663C996.054,464.869 993.653,463.159 992.147,461.196C990.688,459.295 989.165,457.91 987.06,456.949C985.108,456.056 983.067,455.248 981.313,454.043C976.702,450.886 970.545,453.242 968.794,458.778C970.579,460.279 972.499,461.854 974.366,463.486C975.159,464.182 976.34,464.919 976.486,465.783C976.96,468.575 977.389,471.46 977.168,474.258C976.924,477.35 973.526,479.592 970.439,479.005C966.709,478.295 963.042,477.266 959.327,476.481C952.816,475.1 947.386,471.806 942.609,467.286C941.484,466.22 940.207,465.299 939.16,464.164C937.329,462.175 935.207,460.459 934.307,457.667C933.266,454.427 931.755,453.674 928.318,454.267C926.211,454.631 924.105,455.109 922.08,455.784C919.105,456.777 918.349,459.002 919.988,461.674C920.538,462.569 921.229,463.462 922.058,464.084C925.18,466.416 927.157,469.506 927.646,473.285C928.166,477.292 928.308,481.361 928.382,485.408C928.414,487.137 928.302,489.065 926.697,490.298C924.463,492.017 923.545,494.332 923.17,497.048C922.662,500.691 921.819,504.218 923.018,507.969C924.998,514.169 927.8,519.897 931.655,525.117C933.918,528.18 935.678,531.336 934.03,535.473C930.554,538.911 927.199,539.122 923.607,534.004C922.034,531.764 920.665,529.23 918.633,527.497C915.399,524.741 913.315,521.417 911.996,517.516C909.929,511.409 908.011,505.251 905.91,499.156C903.356,491.743 903.336,491.809 909.538,487.227C912.689,484.898 915.373,482.18 914.806,477.738C914.212,473.109 912.334,469.044 909.236,465.579C904.433,460.203 905.94,452.163 910.663,447.582C915.715,442.684 921.031,438.057 926.265,433.343C929.549,430.383 932.754,427.425 934.735,423.302C935.441,421.829 937.085,420.806 938.254,419.623C940.423,420.936 942.148,421.981 944.086,423.152M267.964,427.081C266.925,424.661 266.223,422.513 265.128,420.592C262.918,416.727 261.007,412.56 256.251,410.941C251.824,409.434 247.443,409.256 242.984,410.691C242.227,410.935 241.206,411.335 240.648,411.035C238.784,410.034 236.571,409.115 235.396,407.504C230.574,400.885 225.076,394.623 222.855,386.435C222.452,384.944 221.996,383.447 221.376,382.037C220.325,379.646 219.344,377.178 217.929,375.008C215.94,371.95 212.555,370.927 209.173,372.174C207.641,372.737 206.202,373.665 204.871,374.636C200.728,377.658 196.861,381.105 192.514,383.785C186.44,387.526 180.267,390.788 175.828,396.85C172.483,401.42 169.127,405.797 167.726,411.341C167.394,412.656 167.394,414.149 167.626,415.494C168.132,418.422 168.959,421.294 169.511,424.217C170.028,426.957 169.543,429.549 167.836,432.249C164.277,429.747 161.303,427.391 161.171,422.662C160.991,416.265 160.17,409.902 160.575,403.463C160.729,401.009 161.293,398.812 162.152,396.588C163.525,393.038 165.036,389.519 166.085,385.874C167.166,382.11 167.812,378.219 168.565,374.37C169.025,372.026 170.084,370.091 172.109,368.818C173.872,367.711 175.209,369.046 176.643,369.812C178.524,370.815 180.499,370.807 182.525,370.261C183.892,369.892 185.289,369.4 186.674,369.396C188.717,369.39 190.277,368.66 191.896,367.475C195.829,364.591 197.668,360.588 198.549,356.006C199.357,351.797 200.06,347.57 200.854,343.359C202.157,336.45 203.634,329.571 204.761,322.634C205.324,319.149 205.198,315.576 203.903,312.19C201.651,311.86 200.042,312.662 198.575,314.045C195.725,316.735 192.893,319.453 189.9,321.975C188.275,323.344 186.414,324.481 184.524,325.464C180.485,327.565 177.247,330.665 175.105,334.48C173.374,337.563 171.629,340.409 168.743,342.44C164.566,345.378 160.995,349.181 156.189,351.227C153.369,352.428 151.164,354.309 149.609,357.013C149.048,357.988 148.123,359.203 147.163,359.419C143.16,360.325 140.988,363.274 138.765,366.25C135.874,370.121 133.254,374.278 133.274,379.195C133.304,385.972 133.779,392.769 134.485,399.514C134.812,402.637 134.285,405.111 132.198,407.378C129.856,409.926 127.604,412.56 125.293,415.138C123.968,416.617 123.235,418.316 123.149,420.312C123.003,423.644 123.001,426.995 122.597,430.297C122.094,434.414 121.234,438.489 120.543,442.584C120.267,444.215 119.738,445.867 119.827,447.48C120.103,452.349 120.635,457.203 121.047,462.063C121.218,464.078 121.264,466.106 121.496,468.115C122.07,473.081 122.993,478.026 123.273,483.006C123.747,491.462 123.976,499.935 124.024,508.405C124.052,513.395 124.146,518.498 122.04,523.208C119.734,528.364 119.396,533.75 121.047,538.953C124.526,549.922 127.278,561.35 136.409,569.514C136.583,569.668 136.665,569.92 136.819,570.1C140.998,574.998 144.799,580.248 149.871,584.311C153.271,587.033 156.167,590.227 158.241,594.002C159.83,596.894 161.045,600.041 162.026,603.201C163.155,606.844 165.616,608.347 169.137,608.651C170.442,608.763 171.753,608.809 173.058,608.933C176.857,609.293 180.649,609.772 184.454,610.026C189.064,610.336 193.693,610.378 198.301,610.715C199.804,610.825 201.339,611.341 202.732,611.955C204.935,612.926 207.093,613.677 209.573,613.771C211.652,613.849 213.982,614.169 215.711,615.2C218.884,617.099 219.62,620.38 218.986,623.924C218.089,628.928 216.022,633.341 212.925,637.446C208.91,642.768 209.665,645.264 213.462,651.068C215.167,653.676 217.877,654.781 220.809,654.673C222.392,654.615 223.167,655.279 224.192,656.108C226.505,657.979 228.859,659.815 231.317,661.49C233.376,662.891 235.676,663.934 237.742,665.325C241.46,667.825 245.427,669.55 249.865,670.361C252.661,670.873 255.361,671.914 258.101,672.724C259.017,672.995 259.922,673.533 260.831,673.535C265.58,673.545 269.915,675.342 274.385,676.531C275.133,676.731 276.192,677.116 276.42,677.69C277.475,680.348 278.458,683.042 276.707,685.9C275.155,688.43 273.748,691.062 272.445,693.73C270.986,696.718 271.733,698.894 274.547,700.671C277.509,702.544 280.77,702.108 283.948,701.736C285.041,701.61 286.248,700.731 285.919,699.198C285.173,695.741 286.159,692.307 286.065,688.95C285.927,683.931 286.942,679.353 288.335,674.67C289.488,670.803 290.204,666.806 291.059,662.855C291.259,661.934 291.325,660.96 291.303,660.013C291.191,654.727 291.93,649.599 293.675,644.58C295.28,639.96 295.178,635.137 294.153,630.461C292.792,624.255 292.156,617.998 291.794,611.687C291.664,609.428 291.491,607.174 291.337,604.918C291.039,600.539 290.517,596.202 291.133,591.765C291.744,587.379 291.413,582.948 290.036,578.651C288.655,574.336 287.975,569.994 288.085,565.363C288.241,558.876 289.12,552.57 290.387,546.235C291.123,542.554 291.149,538.715 291.309,534.937C291.527,529.825 291.303,524.681 291.748,519.593C292.402,512.12 295.747,505.397 298.413,498.518C301.345,490.956 304.579,483.508 306.404,475.565C307.067,472.674 307.423,469.692 308.324,466.88C309.449,463.372 311.014,460.009 312.345,456.565C314.186,451.805 316.854,447.604 320.721,444.245C323.505,441.826 325.354,438.829 326.671,435.441C327.834,432.441 326.603,430.84 323.359,431.168C322.765,431.228 322.144,431.258 321.592,431.462C315.247,433.802 308.44,435.055 303.006,439.556C301.851,440.511 300.248,440.927 298.859,441.602C297.47,442.276 295.997,442.828 294.72,443.671C290.835,446.239 287.116,448.921 284.452,452.966C282.123,456.501 279.26,456.929 276.206,454.813C275.466,454.301 274.917,453.452 274.409,452.672C273.306,450.976 272.303,449.215 271.228,447.496C269.972,445.49 267.848,444.926 265.768,444.378C263.919,443.891 262.728,444.988 261.387,446.139C259.148,448.06 255.691,446.977 253.898,443.761C254.84,443.211 255.783,442.618 256.762,442.092C258.387,441.221 259.826,440.321 259.756,438.099C259.706,436.55 260.619,435.599 262.078,434.867C263.417,434.198 264.75,433.179 265.606,431.974C266.675,430.469 267.252,428.616 267.964,427.081M347.399,331.822C347.699,331.722 347.999,331.626 348.301,331.526C348.353,330.615 348.486,329.699 348.44,328.792C348.253,325.113 347.785,321.435 347.833,317.764C347.931,310.453 350.143,303.704 353.888,297.445C359.854,287.47 367.734,279.145 376.797,272.046C381.356,268.474 385.339,264.483 389.234,260.275C391.892,257.401 395.082,254.627 399.047,254.189C404.537,253.581 410.015,252.96 415.697,254.197C422.66,255.712 427.522,259.833 432.173,264.621C432.476,264.935 432.582,265.471 432.716,265.922C433.52,268.662 434.393,271.388 435.08,274.156C436.399,279.484 432.946,283.875 427.988,284.948C425.673,285.45 423.277,285.638 421.001,286.269C412.033,288.753 403.108,291.384 394.153,293.91C384.014,296.768 376.308,302.707 371.036,311.844C369.305,314.844 368.827,318.12 368.674,321.463C368.564,323.802 369.545,325.62 371.809,326.61C374.213,327.661 376.5,329.204 379.008,329.741C383.802,330.772 386.984,333.868 390.07,337.224C391.195,338.449 392.074,339.9 393.181,341.145C396.433,344.8 399.693,348.319 404.557,350.106C409.897,352.069 414.422,355.334 417.627,360.257C418.723,361.937 420.183,363.43 421.676,364.789C424.908,367.733 428.635,369.794 433.052,370.359C435.528,370.675 438.008,370.975 440.492,371.203C442.489,371.386 444.503,371.386 446.498,371.588C448.85,371.828 451.266,371.932 453.515,372.584C456.249,373.375 458.795,374.798 461.497,375.733C473.088,379.754 484.49,384.495 496.897,385.556C501.06,385.914 504.671,387.57 508.16,389.737C510.279,391.052 512.479,392.349 514.813,393.182C518.173,394.383 520.933,396.33 523.437,398.772C527.022,402.268 530.574,405.803 534.265,409.182C535.83,410.615 537.557,412.098 539.485,412.864C545.157,415.108 549.444,418.623 552.102,424.219C553.819,427.835 557.2,429.116 561.001,429.198C565.438,429.294 569.737,429.893 573.848,431.676C575.151,432.241 576.6,432.471 577.949,432.939C582.25,434.434 586.347,436.133 589.548,439.688C594.898,445.624 601.707,448.727 609.741,449.031C610.215,449.049 610.775,449.027 611.14,449.263C613.317,450.672 615.273,449.705 617.198,448.739C619.008,447.83 620.725,446.729 622.544,445.841C623.587,445.332 624.732,444.926 625.873,444.73C633.056,443.503 639.847,441.433 644.568,435.405C647.429,431.754 650.049,427.905 652.66,424.067C655.673,419.637 658.507,415.08 661.543,410.663C662.324,409.524 663.454,408.521 664.623,407.764C667.015,406.215 669.627,405.004 671.999,403.423C681.258,397.243 689.78,390.196 696.947,381.623C698.012,380.352 698.997,378.969 699.765,377.506C702.707,371.9 705.618,366.276 708.388,360.584C709.422,358.464 710.079,356.158 710.831,353.909C711.658,351.431 712.198,348.839 713.229,346.453C714.346,343.863 714.782,341.229 714.796,338.467C714.8,337.629 714.728,336.782 714.836,335.957C715.899,327.789 714.904,319.946 710.435,312.914C707.955,309.009 705.117,305.259 701.985,301.862C699.579,299.248 696.441,297.335 692.73,296.76C688.489,296.1 684.258,295.377 680.009,294.775C679.09,294.645 678.027,294.685 677.181,295.027C672.443,296.931 667.363,296.973 662.432,297.551C657.852,298.087 653.097,298.005 648.513,297.441C643.442,296.818 638.438,295.481 633.48,294.175C630.984,293.52 628.158,292.781 626.367,291.122C624.233,289.141 621.988,287.462 619.528,286.039C614.8,283.302 611.388,279.538 609.557,274.332C608.188,270.441 605.458,267.681 601.847,265.754C601.11,265.363 600.412,264.889 599.655,264.539C597.279,263.438 595.712,261.849 594.972,259.147C593.935,255.37 595.432,253.038 599.283,253.402C601.044,253.57 602.788,254.033 604.503,254.497C609.09,255.738 613.63,257.151 618.239,258.304C622.17,259.287 626.149,260.137 630.146,260.808C634.719,261.576 639.331,262.101 643.934,262.697C646.748,263.06 649.57,263.38 652.392,263.68C655.108,263.97 657.866,264.629 660.54,264.393C668.958,263.654 677.345,262.573 685.743,261.618C689.276,261.218 691.273,259.285 691.023,255.688C690.811,252.646 689.938,249.636 689.209,246.649C688.453,243.535 687.032,240.505 686.77,237.367C686.205,230.582 686.672,223.76 688.365,217.144C689.456,212.884 690.61,208.317 694.421,205.623C698.012,203.085 700.694,199.785 703.586,196.63C706.44,193.514 709.086,190.14 709.442,185.798C709.783,181.657 709.863,177.428 709.43,173.305C708.916,168.444 704.375,164.12 700.092,164.479C695.01,164.907 689.896,165.682 685.227,168.059C681.308,170.055 679.532,173.287 679.622,177.626C679.662,179.538 679.714,181.449 679.712,183.361C679.71,185.17 679.144,186.457 677.185,187.185C674.853,188.05 672.721,189.443 670.452,190.496C664.871,193.09 659.666,196.458 653.473,197.797C650.407,198.458 647.457,200.107 644.727,201.758C638.21,205.701 631.953,210.076 625.396,213.943C622.4,215.709 621.269,218.042 621.247,221.247C621.241,222.085 621.365,222.948 621.201,223.754C621.047,224.503 620.707,225.688 620.238,225.802C619.308,226.026 618.165,225.812 617.242,225.446C616.67,225.22 616.197,224.439 615.935,223.802C613.652,218.246 613.71,212.452 615.749,207.034C617.45,202.513 621.167,199.056 625.458,196.841C628.264,195.393 630.736,193.676 633.136,191.709C635.322,189.917 636.342,187.744 636.352,184.892C636.374,178.247 632.76,172.931 629.103,168.179C625.346,163.298 619.754,159.943 613.389,158.868C608.342,158.016 603.22,157.628 598.128,157.073C597.552,157.011 596.927,157.117 596.363,157.281C589.037,159.427 581.662,161.428 574.415,163.818C569.141,165.555 564.349,168.343 560.911,172.861C558.535,175.989 556.051,179.165 554.412,182.688C552.466,186.879 549.49,189.247 545.233,190.472C543.159,191.07 541.38,192.099 539.997,193.96C538.886,195.456 537.417,196.955 535.766,197.725C532.762,199.122 529.525,200.031 526.353,201.046C521.818,202.499 517.272,203.92 512.699,205.245C508.368,206.498 504.053,207.935 499.631,208.721C490.677,210.311 481.628,210.579 472.559,209.612C469.603,209.296 466.601,208.727 463.681,208.978C460.709,209.234 458.025,208.583 455.277,207.851C448.83,206.133 442.373,205.733 435.808,207.284C434.521,207.587 432.906,207.47 431.697,206.952C427.264,205.061 422.656,204.102 417.927,203.259C409.104,201.684 400.246,201.112 391.311,200.916C385.185,200.781 379.198,201.838 373.144,202.289C365.706,202.847 358.695,205.369 351.5,207.052C347.923,207.889 344.254,208.609 340.596,208.783C335.726,209.014 330.829,208.607 325.943,208.573C319.904,208.533 314.154,210.24 308.37,211.69C307.467,211.916 306.603,212.42 305.804,212.928C301.979,215.362 298.347,218.168 294.324,220.202C290.839,221.963 288.639,224.787 286.256,227.571C286.025,227.843 285.847,228.164 285.597,228.42C283.872,230.185 282.999,232.321 282.485,234.725C281.144,241.011 281.746,247.34 281.972,253.649C282.062,256.122 282.673,258.6 283.251,261.026C284.378,265.76 285.781,270.433 286.822,275.186C287.715,279.274 286.149,283.292 283.217,284.894C278.302,287.58 273.478,288.058 270.24,285.094C269.007,283.967 267.726,282.894 266.459,281.807C265.264,280.779 264.047,280.667 262.5,281.215C259.172,282.398 258.191,285.204 257.516,288.118C255.01,298.912 252.567,309.724 250.237,320.558C249.412,324.395 247.627,327.315 244.142,329.27C240.388,331.378 236.909,333.876 234.177,337.298C231.925,340.122 230.755,343.165 231.277,346.875C231.569,348.941 231.329,351.081 231.329,352.402C232.874,354.243 233.909,355.918 235.346,357.107C239.101,360.209 242.928,363.244 246.92,366.028C250.729,368.682 254.892,370.845 258.103,374.282C259.398,375.669 260.771,375.937 262.606,375.581C267.242,374.682 271.937,374.08 276.568,373.151C277.861,372.891 279.759,372.164 280.085,371.209C281.192,367.977 282.117,364.573 282.373,361.182C282.749,356.198 282.661,351.205 283.317,346.197C284.837,334.538 288.081,323.368 291.832,312.29C292.46,310.435 293.345,309.672 295.18,310.084C296.201,310.316 297.406,310.449 298.146,311.079C300.168,312.798 301.911,312.676 303.811,310.957C304.393,310.431 305.272,310.234 306.214,309.792C306.515,307.088 306.653,304.35 307.151,301.678C308.326,295.361 309.673,289.077 310.948,282.78C311.824,278.461 312.823,274.164 313.53,269.817C314.2,265.713 314.252,261.488 315.151,257.443C315.873,254.201 317.485,251.171 320.915,249.798C323.379,250.702 324.4,252.454 324.06,254.871C323.785,256.853 323.381,258.844 322.771,260.748C321.428,264.953 319.62,269.118 319.87,273.587C320.367,282.478 321.237,291.35 321.89,300.233C322.168,304.008 322.871,307.763 322.074,311.591C321.418,314.736 323.049,317.087 325.308,319.071C326.113,319.777 326.922,320.478 327.742,321.168C330.746,323.694 333.775,326.186 336.749,328.744C339.571,331.168 342.421,331.51 345.431,329.12C345.569,329.01 345.868,329.104 345.958,329.104C346.464,330.057 346.932,330.938 347.399,331.822M357.026,780.216C359.434,778.973 360.893,778.765 362.626,779.84C366.063,781.975 369.893,783.018 373.742,783.991C374.971,784.303 376.372,784.509 377.573,784.235C380.211,783.63 382.797,782.756 385.357,781.859C387.755,781.018 390.076,780.418 392.664,781.191C393.975,781.585 395.484,781.549 396.875,781.411C403.991,780.704 411.1,779.912 418.209,779.125C420.695,778.849 423.217,778.707 425.643,778.156C435.532,775.907 445.437,773.711 455.24,771.133C462.458,769.232 469.479,768.759 476.672,771.185C482.643,773.197 488.763,774.772 494.788,776.635C498.196,777.686 501.499,777.34 504.979,776.847C511.578,775.909 518.267,774.91 524.892,775.066C531.067,775.212 537.255,775.506 543.446,775.672C553.335,775.935 563.218,776.617 573.086,777.366C579.893,777.886 580.417,779.347 582.583,785.654C583.317,787.789 583.061,789.751 581.41,791.588C579.823,793.356 578.612,795.457 577.183,797.371C575.888,799.102 575.455,801.037 576.014,803.065C576.991,806.619 577.987,810.184 579.262,813.637C580.457,816.875 581.958,820.007 583.443,823.128C586.069,828.648 587.514,834.576 589.576,840.286C591.259,844.944 592.188,849.669 592.788,854.529C593.443,859.841 594.225,865.135 594.926,870.445C595.128,871.97 595.402,873.513 595.376,875.044C595.29,880.524 595.056,886.004 594.944,891.484C594.874,894.915 595.004,898.349 594.888,901.778C594.826,903.653 594.033,905.57 594.275,907.37C595.138,913.737 596.325,920.061 597.35,926.406C598.534,933.719 599.195,941.071 598.973,948.484C598.921,950.262 598.554,952.035 598.536,953.812C598.42,966.117 598.404,978.42 598.246,990.723C598.2,994.29 598.05,997.895 597.492,1001.41C596.657,1006.68 596.559,1012.07 594.634,1017.18C593.819,1019.35 593.559,1021.83 593.539,1024.17C593.503,1028.81 593.849,1033.44 593.957,1038.08C594.039,1041.57 594.884,1044.67 597.764,1046.96C602.716,1050.89 607.459,1055.12 612.639,1058.73C615.995,1061.06 619.318,1063.74 623.685,1064.33C628.276,1064.95 632.808,1066.12 637.409,1066.51C642.017,1066.89 646.684,1066.67 651.319,1066.55C652.676,1066.52 654.204,1066.22 655.324,1065.52C657.398,1064.21 659.123,1062.35 661.185,1061.02C665.078,1058.52 668.122,1055.16 670.82,1051.52C673.512,1047.9 676.132,1044.16 678.193,1040.16C679.558,1037.51 680.305,1034.5 679.74,1031.2C678.956,1026.63 676.706,1022.37 676.99,1017.59C677.024,1017.04 676.658,1016.45 676.408,1015.91C674.809,1012.44 673.166,1008.99 671.586,1005.51C668.176,998.019 664.891,990.471 661.375,983.028C659.201,978.436 657.982,973.619 657.184,968.655C656.806,966.303 656.467,963.946 656.113,961.59C655.266,955.942 654.256,950.31 653.627,944.641C653.139,940.266 653.281,935.825 652.873,931.44C652.11,923.264 651.129,915.108 650.289,906.938C649.974,903.863 649.428,900.747 649.646,897.697C649.904,894.118 650.257,890.621 649.436,887.065C648.956,884.983 648.78,882.828 648.533,880.698C648.119,877.155 647.689,873.611 647.393,870.058C646.996,865.241 645.099,860.515 646.624,855.572C647.038,854.225 647.238,852.753 647.214,851.344C647.12,845.804 648.115,840.444 649.452,835.1C651.734,825.972 653.867,816.807 656.109,807.67C657.142,803.455 657.612,799.154 657.032,794.901C656.397,790.251 657.606,786.288 659.928,782.381C664.513,774.662 671.164,769.114 678.602,764.434C685.052,760.373 692.02,757.737 699.795,757.577C701.545,757.541 703.294,756.923 705.027,756.506C709.887,755.335 714.69,753.848 719.604,753.004C725.708,751.959 731.911,751.511 738.05,750.664C742.415,750.06 746.79,749.407 751.089,748.452C760.162,746.439 769.191,744.221 778.233,742.074C782.404,741.085 786.597,740.172 790.721,739.027C793.703,738.199 796.551,736.874 799.539,736.075C803.11,735.122 806.678,734.426 810.387,736.089C812.863,737.2 815.643,737.642 818.291,738.373C819.093,738.593 820.024,738.587 820.683,739.015C823.178,740.629 825.708,742.23 827.98,744.129C829.593,745.48 831.13,746.003 833.182,745.596C841.326,743.981 849.516,742.774 856.943,738.513C862.395,735.385 863.078,734.136 860.63,728.127C859.561,725.501 858.777,722.743 858.026,720.001C857.544,718.236 856.409,717.207 854.984,716.227C853.227,715.022 851.309,713.841 850.034,712.202C848.745,710.544 847.268,709.395 845.581,708.225C843.271,706.629 840.419,705.687 838.932,702.963C837.793,700.875 836.392,698.932 835.147,696.9C833.528,694.256 831.815,691.662 830.39,688.918C828.308,684.905 826.433,680.782 824.499,676.695C824.199,676.067 823.843,675.378 823.841,674.714C823.813,667.907 824.111,661.15 825.917,654.505C827.163,649.928 828.733,645.404 828.931,640.577C829.085,636.888 829.441,633.209 829.659,629.524C830.27,619.043 830.806,608.639 828.094,598.241C824.503,584.461 819.071,571.574 811.114,559.801C803.898,549.123 796.165,538.779 791.361,526.662C790.708,525.015 789.738,523.46 788.717,521.999C783.825,514.994 778.86,508.035 773.936,501.051C773.594,500.565 773.418,499.969 773.105,499.464C770.143,494.713 767.776,489.413 764.059,485.352C758.301,479.057 751.596,473.629 745.337,467.785C743.43,466.002 741.618,464.11 739.859,462.181C736.406,458.39 733.086,454.475 729.581,450.736C727.214,448.214 724.536,445.981 722.15,443.475C719.82,441.029 718.057,438.329 718.087,434.638C718.109,431.568 717.446,428.502 717.26,425.424C717.048,421.981 717.042,418.526 716.926,415.076C716.862,413.156 718.089,412.536 719.666,412.552C720.571,412.56 721.553,412.866 722.356,413.305C724.055,414.237 725.726,414.251 727.546,413.763C729.261,413.303 731.038,413.072 732.784,412.72C735.546,412.166 737.913,411.211 739.112,408.257C740.846,403.984 741.258,399.544 741.324,395.023C741.332,394.561 741.228,394.05 741.016,393.64C739.875,391.414 738.77,389.159 737.487,387.011C735.766,384.135 733.252,382.982 730.178,384.199C727.928,385.09 725.819,386.599 723.985,388.22C721.425,390.478 720.198,393.672 719.1,396.842C717.949,400.173 715.495,402.346 712.311,403.127C709.134,403.908 705.72,403.679 702.443,404.132C699.639,404.52 696.811,405.024 694.113,405.867C688.925,407.492 684.488,410.529 680.201,413.811C677.761,415.68 675.163,417.342 672.679,419.155C671.923,419.709 671.218,420.386 670.642,421.124C668.012,424.501 665.436,427.919 662.814,431.354C662.636,431.404 662.394,431.556 662.187,431.518C660.494,431.22 658.991,431.468 658.371,433.281C657.754,435.087 659.319,435.695 660.384,436.628C661.317,437.45 662.031,438.525 662.836,439.49C664.427,441.389 665.032,443.811 666.218,445.903C669.087,450.966 672.345,455.808 675.255,460.85C676.856,463.624 678.181,466.574 679.428,469.53C681.41,474.232 681.192,479.335 681.836,484.277C682.03,485.776 681.864,487.231 680.451,488.042C678.998,488.878 677.677,488.176 676.512,487.223C671.154,482.842 665.794,478.469 660.46,474.061C657.798,471.858 655.242,469.528 652.554,467.359C650.171,465.437 647.661,465.801 645.325,467.469C641.929,469.896 638.52,472.316 635.286,474.946C631.783,477.796 628.523,480.861 624.562,483.202C618.327,486.891 611.87,489.237 604.567,488.77C603.286,488.688 601.987,488.41 600.762,488.014C595.342,486.251 593.303,481.019 589.858,477.228C589.718,477.074 589.74,476.772 589.684,476.541C587.548,467.863 579.39,463.193 571.338,463.72C566.573,464.032 561.845,464.142 557.13,463.384C555.499,463.123 553.775,462.879 552.326,462.155C545.523,458.752 539.475,454.459 535.48,447.694C533.422,444.209 531.065,440.883 528.665,437.615C526.917,435.235 524.712,433.862 521.383,434.14C517.841,434.434 514.204,434.17 510.665,433.724C503.406,432.811 496.189,432.727 488.899,433.389C482.817,433.94 476.734,433.532 470.82,431.704C469.695,431.356 468.486,431.08 467.321,431.098C461.025,431.198 455.569,428.296 449.961,426.126C446.052,424.613 442.935,421.671 439.971,418.681C435.478,414.151 430.194,410.685 424.656,407.604C423.851,407.154 422.516,406.93 421.752,407.292C420.641,407.819 420.415,409.059 420.769,410.412C421.269,412.34 421.522,414.335 421.878,416.277C419.352,418.332 416.634,419.689 413.466,420.162C412.177,420.354 410.93,420.834 409.675,421.222C406.42,422.223 404.145,424.041 403.184,427.587C402.199,431.224 402.52,432.707 406.028,435.063C406.068,435.479 406.034,435.975 406.172,436.418C407.173,439.64 407.543,443.047 411.236,444.912C414.438,446.527 415.255,449.227 414.296,452.818C413.72,454.971 412.755,457.023 411.906,459.098C410.96,461.412 409.783,463.644 409.002,466.008C408.042,468.906 406.468,471.287 404.485,473.601C401.391,477.204 398.138,480.841 395.899,484.978C390.278,495.365 385.151,506.021 379.905,516.607C378.532,519.381 377.407,522.283 376.23,525.149C374.507,529.34 372.864,533.565 371.14,537.755C370.104,540.276 368.616,542.676 367.996,545.288C367.317,548.152 367.64,551.239 367.097,554.149C366.471,557.501 365.602,560.848 364.415,564.04C363.425,566.696 361.851,569.136 360.49,571.65C358.843,574.69 357.342,577.836 355.427,580.702C352.382,585.258 349.036,589.613 345.848,594.074C345.447,594.637 345.037,595.313 344.963,595.974C344.264,602.234 343.366,608.491 343.068,614.772C342.823,619.989 343.334,625.239 343.464,630.475C343.778,643.066 346.06,655.354 349.12,667.521C350.251,672.024 351.974,676.419 352.707,680.976C354.002,689.01 355.999,696.836 358.337,704.6C359.676,709.049 362.742,711.889 366.861,713.637C372.98,716.231 377.711,723.246 377.099,729.799C376.738,733.679 375.986,737.602 374.781,741.301C373.46,745.362 371.056,749.075 369.775,753.144C368.096,758.482 363.891,761.726 360.528,765.689C360.172,766.109 359.512,766.532 359.003,766.52C354.81,766.406 353.695,769.404 352.591,772.566C351.888,774.582 352.479,776.003 354.04,777.284C355.028,778.096 355.875,779.075 357.026,780.216M849.144,813.278C848.859,812.418 848.523,811.797 848.459,811.147C848.123,807.742 848.023,804.302 847.512,800.925C847.05,797.877 845.011,796.004 841.918,795.785C837.633,795.479 833.302,795.061 829.047,795.399C825.548,795.679 822.162,796.67 818.537,796.106C816.351,795.765 814.026,796.406 811.77,796.366C808.628,796.312 805.932,795.017 804.07,792.483C802.195,789.925 799.705,788.558 796.737,787.767C790.138,786.006 783.473,785.001 776.614,784.795C770.526,784.611 764.491,783.969 758.549,785.928C751.451,788.268 744.01,789.791 738.316,795.249C737.245,796.274 735.682,796.902 734.243,797.407C728.731,799.342 723.179,801.159 717.638,802.995C717.194,803.141 716.694,803.107 716.225,803.171C711.706,803.783 707.135,804.566 703.24,806.928C697.96,810.134 692.988,813.849 687.931,817.415C687.186,817.94 686.363,818.766 686.165,819.593C685.333,823.055 683.998,826.434 684.406,830.123C685.305,838.259 687.264,846.093 691.339,853.242C693.877,857.699 696.695,861.998 699.489,866.303C703.692,872.78 706.772,879.849 707.751,887.397C708.586,893.838 707.861,900.481 707.813,907.034C707.787,910.498 707.429,913.985 707.737,917.413C708.952,930.935 710.379,944.437 711.712,957.947C711.934,960.199 712.046,962.459 712.271,964.712C712.771,969.688 713.658,974.652 713.752,979.635C713.886,986.931 715.339,993.736 718.579,1000.32C721.375,1006.01 722.922,1012.14 723.233,1018.58C723.539,1024.98 722.304,1031.18 721.009,1037.33C720.437,1040.05 718.959,1042.76 717.28,1045.01C715.031,1048.03 712.082,1050.51 709.627,1053.39C705.704,1058 700.698,1061.03 695.116,1062.85C688.993,1064.84 683.725,1068.36 678.243,1071.45C674.757,1073.42 671.652,1076.18 668.7,1078.94C664.869,1082.51 661.511,1086.59 657.664,1090.14C653.917,1093.61 650.309,1097.29 645.621,1099.63C640.956,1101.96 634.509,1101.28 630.658,1097.78C627.13,1094.58 623.939,1090.89 620.05,1088.21C613.077,1083.42 605.674,1079.26 598.48,1074.78C594.732,1072.45 590.516,1072.19 586.387,1072.43C580.249,1072.78 574.821,1070.86 569.867,1067.74C563.122,1063.5 557.982,1057.45 553.333,1051.08C545.553,1040.42 543.262,1028.08 543.043,1015.22C542.971,1011.16 543.173,1007.09 543.254,1003.03C543.272,1002.08 543.25,1001.12 543.344,1000.17C544.172,991.708 544.206,983.234 542.763,974.86C541.212,965.835 538.592,957.001 538.304,947.75C538.152,942.872 537.355,938.002 537.349,933.129C537.341,927.533 537.848,921.937 538.198,916.346C538.652,909.065 539.841,901.918 542.341,895.031C545.145,887.299 547.989,879.583 550.761,871.838C551.684,869.256 552.502,866.63 553.259,863.994C555.294,856.897 557.29,849.793 559.233,842.672C559.47,841.799 559.544,840.725 559.267,839.886C557.994,836.041 556.679,832.202 555.144,828.457C554.576,827.07 553.439,825.884 552.426,824.725C551.175,823.294 549.88,821.871 548.421,820.664C547.487,819.895 546.184,818.986 545.123,819.071C542.629,819.279 539.823,818.724 537.87,821.218C537.391,821.829 536.158,821.933 535.24,822.109C533.012,822.535 530.654,822.553 528.551,823.302C525.118,824.527 521.68,824.346 518.355,823.576C513.414,822.437 508.306,821.997 503.686,819.387C501.064,817.902 497.858,817.391 494.864,816.639C492.438,816.03 489.834,816.022 487.496,815.21C483.157,813.705 478.804,814.319 474.435,814.521C468.648,814.789 463.258,816.927 457.666,818.12C451.938,819.343 447.133,822.441 442.131,825.187C440.067,826.32 437.982,827.805 435.756,828.153C432.854,828.608 430.544,829.692 428.525,831.668C427.33,832.839 426.165,834.044 424.97,835.216C421.768,838.345 418.235,840.877 413.698,841.743C411.358,842.19 409.066,842.89 406.735,843.397C398.054,845.294 389.864,849.341 380.733,849.311C379.569,849.307 378.398,849.773 377.241,850.067C373.894,850.918 370.59,851.989 367.205,852.617C358.855,854.164 350.483,854.401 341.991,853.38C335.154,852.557 330.286,855.441 329.81,863.443C329.654,866.047 329.107,868.627 328.815,871.229C328.405,874.884 327.514,878.593 327.81,882.199C328.487,890.519 329.694,898.807 333.322,906.503C333.719,907.348 333.927,908.303 334.119,909.229C335.302,914.913 336.395,920.614 337.636,926.286C339.007,932.548 340.306,938.851 344.138,944.227C344.204,944.321 344.238,944.443 344.284,944.555C347.215,951.587 349.987,958.698 353.131,965.635C355.883,971.711 358.939,977.658 362.088,983.538C363.541,986.252 365.59,988.64 367.273,991.238C370.906,996.846 374.457,1002.51 378.083,1008.12C382.673,1015.24 387.741,1022.09 391.82,1029.48C399.077,1042.64 405.686,1056.14 412.685,1069.44C415.349,1074.51 418.163,1079.51 421.245,1084.33C422.999,1087.07 424.542,1089.81 425.476,1092.93C425.917,1094.41 426.591,1095.83 427.282,1097.21C432.005,1106.63 437.836,1115.37 443.694,1124.1C446.686,1128.56 449.863,1132.94 452.358,1137.67C455.361,1143.37 457.898,1149.31 461.877,1154.45C463.3,1156.29 464.019,1158.39 464.093,1160.74C464.187,1163.72 464.067,1166.76 464.633,1169.66C465.956,1176.45 467.742,1183.13 470.972,1189.35C474.383,1195.91 477.977,1202.4 480.972,1209.15C483.8,1215.52 487.078,1221.56 491.055,1227.26C499.479,1239.34 506.558,1252.19 513.003,1265.41C516.556,1272.69 520.132,1279.98 524.043,1287.08C527.722,1293.75 531.127,1300.62 536.012,1306.58C540.097,1311.57 543.966,1316.73 548.141,1321.64C550.209,1324.07 552.412,1326.78 555.16,1328.14C559.9,1330.49 563.839,1333.42 566.745,1337.81C567.397,1338.8 568.252,1339.66 569.099,1340.5C572.157,1343.5 574.951,1346.74 578.712,1349.03C583.705,1352.07 588.391,1355.6 593.341,1358.72C600.978,1363.52 608.884,1367.42 618.355,1367.11C623.797,1366.92 629.311,1367.15 634.635,1368.76C637.711,1369.68 640.808,1370.56 643.928,1371.32C650.209,1372.85 656.615,1373.76 663.06,1373.72C670.233,1373.68 677.231,1371.95 684.218,1370.49C687.228,1369.85 690.046,1368.37 693.03,1367.55C695.766,1366.8 698.712,1365.71 701.364,1366.1C704.145,1366.52 706.196,1365.96 708.352,1364.61C715.479,1360.15 721.623,1354.5 727.602,1348.67C730.934,1345.41 734.399,1342.36 738.16,1339.58C741.286,1337.26 744.108,1334.37 746.552,1331.33C754.704,1321.17 759.728,1309.26 764.989,1297.49C767.665,1291.5 769.953,1285.28 773.2,1279.62C778.546,1270.3 781.912,1260.23 784.96,1250.09C789.574,1234.74 795.33,1219.88 802.133,1205.41C805.79,1197.63 810.035,1190.08 813.139,1182.1C817.63,1170.54 821.347,1158.68 825.346,1146.94C826.849,1142.53 828.182,1138.09 828.168,1133.34C828.158,1129.77 828.915,1126.15 828.51,1122.64C828.096,1119.09 828.394,1115.78 829.319,1112.42C831.467,1104.61 833.59,1096.79 835.716,1088.97C837.937,1080.81 839.827,1072.53 842.465,1064.5C844.845,1057.25 847.26,1050.03 849.282,1042.66C852.118,1032.32 855.37,1022.09 858.361,1011.79C860.692,1003.77 863.118,995.771 865.081,987.659C866.531,981.669 866.456,975.43 868.138,969.38C870.56,960.671 872.211,951.735 873.962,942.852C874.717,939.017 874.949,935.072 875.317,931.169C875.633,927.851 875.789,924.519 876.034,921.196C876.448,915.616 877.21,910.062 876.666,904.428C876.106,898.623 875.773,892.793 875.331,886.975C874.955,881.993 874.442,877.015 874.222,872.026C874.064,868.495 873.716,864.816 874.478,861.434C875.933,854.995 876.338,848.488 876.954,841.973C877.651,834.582 877.669,827.215 876.764,819.839C876.43,817.123 876.358,814.371 876.024,811.655C875.699,808.997 874.787,808.435 872.153,808.981C871.116,809.195 869.955,809.814 869.064,809.542C866.204,808.673 864.255,809.966 862.359,811.751C861.509,812.55 860.57,813.252 859.541,814.111C856.307,811.397 852.788,812.163 849.144,813.278M175.692,200.359C177.053,202.453 178.374,204.484 180.229,207.338C179.797,210.895 179.351,215.384 178.672,219.836C178.34,222.015 179.2,223.478 180.587,224.787C185.979,225.107 190.477,219.527 190.149,214.352C189.98,211.698 190.141,211.688 192.38,208.877C194.742,210.403 196.261,212.634 197.308,215.142C199.824,221.169 203.258,220.38 207.099,217.582C211.148,214.634 210.718,212.128 208.146,209.22C203.456,203.912 197.81,199.695 191.437,196.618C189.706,195.782 187.489,195.886 185.485,195.716C184.444,195.628 183.372,195.882 181.622,196.048C185.195,193.818 188.301,194.561 191.315,195.261C194.099,195.904 196.777,196.989 199.557,197.649C200.872,197.961 202.44,198.099 203.679,197.679C214.096,194.153 224.11,189.715 233.753,184.399C242.849,179.384 252.076,174.61 261.269,169.781C263.405,168.658 265.156,167.189 266.915,165.515C270.266,162.319 273.75,159.045 277.731,156.773C284.969,152.64 292.456,148.837 300.146,145.629C305.144,143.547 310.706,142.841 315.97,141.358C317.889,140.817 319.762,139.963 321.514,138.996C329.492,134.593 337.742,130.72 346.606,128.666C354.134,126.921 361.847,125.806 369.539,124.969C384.62,123.326 399.663,121.583 414.308,117.422C419.008,116.087 423.721,114.776 428.353,113.233C429.862,112.73 431.301,111.698 432.49,110.603C438.552,105.027 444.557,99.3875 450.513,93.6957C455.671,88.7693 462.036,86.2592 468.638,83.9889C475.401,81.6646 482.248,79.3603 488.621,76.1746C496.073,72.4514 503.904,70.1431 511.854,68.0387C515.649,67.0354 519.46,65.9982 523.329,65.3846C528.975,64.4913 534.499,65.9222 539.977,67.0374C550.113,69.0999 560.27,69.4056 570.56,68.5303C575.874,68.0806 580.441,66.0961 584.984,63.6519C593.525,59.0573 602.529,55.4739 611.806,52.7699C620.042,50.3677 628.495,48.701 636.865,46.7604C644.885,44.9018 652.837,42.4935 660.965,41.4443C670.117,40.2652 679.4,38.8622 688.675,41.4303C693.14,42.6674 697.89,42.8873 702.343,44.1563C708.874,46.0189 715.367,48.1334 721.663,50.6735C726.063,52.4482 730.238,54.9503 732.622,59.459C732.9,59.9846 733.324,60.4383 733.574,60.9739C736.765,67.8348 742.929,71.1584 749.256,74.4C763.444,81.6706 778.535,86.6169 793.459,92.0329C805.297,96.3277 816.169,102.623 826.517,109.788C830.052,112.234 833.75,114.476 837.091,117.156C842.299,121.331 847.272,125.794 852.334,130.147C857.022,134.176 860.014,139.564 863.696,144.4C865.212,146.395 866.649,148.451 868.166,150.446C871.548,154.888 874.054,159.749 874.879,165.307C875.291,168.071 876.802,169.596 879.174,170.829C885.326,174.018 891.425,177.348 896.495,182.178C898.116,183.721 899.587,185.492 900.81,187.364C902.697,190.242 901.588,193.334 900.934,196.33C900.784,197.017 900.408,197.661 900.105,198.308C897.75,203.355 898.494,207.452 902.465,211.505C907.065,216.201 911.718,220.848 916.195,225.656C917.969,227.561 919.43,229.779 920.861,231.967C922.19,233.996 923.777,235.551 925.816,236.972C930.694,240.375 935.407,244.063 939.909,247.956C944.078,251.561 946.103,256.331 945.925,261.947C945.901,262.747 946.005,263.636 946.336,264.35C948.839,269.758 951.467,275.11 953.955,280.524C957.55,288.344 961.583,295.924 966.078,303.261C968.418,307.078 969.795,311.161 970.485,315.632C971.562,322.634 973.916,329.284 977.587,335.391C982.2,343.065 986.579,350.906 991.647,358.27C995.622,364.046 1000.5,369.198 1004.96,374.646C1009.2,379.838 1013.03,385.3 1015.75,391.482C1016.62,393.454 1017.5,395.331 1017.54,397.591C1017.56,398.604 1018.36,399.777 1019.11,400.579C1023.46,405.165 1027.87,409.696 1032.32,414.185C1035.51,417.394 1037.22,421.11 1037.09,425.71C1036.96,430.589 1036.99,435.475 1037.09,440.355C1037.15,443.571 1037.39,446.787 1037.67,449.99C1038.01,453.857 1037.57,457.549 1036.23,461.232C1034.6,465.707 1033.41,470.339 1031.84,474.838C1031.1,476.958 1030.05,479.007 1028.88,480.929C1028.13,482.175 1028.24,483.128 1028.94,484.219C1032.72,490.177 1034.38,496.906 1035.88,503.673C1036.61,506.928 1037.06,510.244 1037.66,513.527C1037.85,514.583 1037.94,515.71 1038.39,516.651C1040.86,521.763 1040.12,526.967 1038.61,532.04C1036.72,538.427 1034.42,544.696 1032.25,551.004C1031.48,553.26 1030.36,555.422 1029.83,557.729C1029.17,560.605 1029.03,563.598 1028.53,566.518C1027.91,570.149 1027.17,573.763 1026.43,577.37C1026.02,579.345 1025.7,581.221 1026.06,583.322C1027.02,588.89 1026.06,594.1 1021.66,598.089C1016.36,602.885 1010.98,607.594 1005.55,612.236C1003.72,613.795 1002.2,615.39 1000.94,617.534C998.652,621.41 995.734,624.919 993.022,628.536C990.949,631.296 988.905,634.092 986.641,636.69C981.381,642.71 975.709,648.392 970.74,654.637C965.774,660.882 961.403,667.609 956.879,674.199C954.464,677.714 953.591,681.609 953.439,685.98C953.159,694.026 954.674,701.84 955.432,709.754C955.873,714.379 956.111,719.021 956.537,723.646C957.266,731.594 957.988,739.546 958.873,747.478C959.715,754.999 959.545,762.489 958.39,769.936C956.491,782.177 954.367,794.382 952.426,806.617C951.982,809.433 951.8,812.302 951.669,815.152C951.205,825.241 948.843,834.692 942.883,843.064C939.006,848.512 935.055,853.938 931.609,859.657C928.516,864.8 925.012,869.578 921.145,874.129C919.948,875.536 919.446,877.081 919.29,878.987C918.569,887.891 917.875,896.81 916.706,905.663C915.179,917.231 913.039,928.72 911.502,940.288C910.593,947.129 910.371,954.056 909.779,960.943C908.96,970.43 908.105,979.917 907.227,989.4C906.438,997.935 905.603,1006.47 904.777,1015C901.701,1046.78 895.964,1078.01 886.505,1108.57C880.363,1128.41 871.764,1147.11 861.999,1165.36C856.367,1175.88 851.055,1186.58 845.499,1197.14C838.72,1210.04 831.709,1222.82 825.04,1235.77C819.956,1245.65 815.349,1255.77 810.341,1265.68C806.576,1273.14 802.501,1280.43 798.586,1287.81C792.08,1300.06 784.572,1311.7 776.934,1323.26C770.634,1332.79 763.36,1341.4 754.025,1348.11C744.334,1355.09 734.833,1362.35 724.856,1368.89C717.386,1373.78 709.312,1377.77 701.459,1382.07C696.249,1384.93 690.534,1386.1 684.694,1386.9C675.597,1388.13 666.553,1389.83 657.432,1390.81C639.18,1392.79 621.239,1391.17 603.748,1385.29C596.137,1382.73 588.817,1379.59 581.79,1375.7C575.533,1372.23 569.137,1369.01 562.826,1365.64C555.709,1361.84 549.548,1356.73 543.66,1351.3C538.39,1346.44 533.26,1341.42 528.262,1336.28C513.115,1320.7 497.996,1305.09 484.28,1288.21C476.062,1278.1 467.133,1268.64 458.063,1259.31C450.069,1251.08 441.949,1242.97 434.115,1234.59C422.052,1221.68 409.889,1208.85 398.318,1195.5C385.623,1180.87 374.655,1164.95 365.186,1147.99C354.632,1129.07 345.347,1109.58 337.634,1089.36C330.45,1070.52 322.981,1051.75 316.746,1032.6C309.365,1009.92 303.162,986.865 296.469,963.968C294.93,958.702 293.387,953.43 292.012,948.118C291.461,945.984 290.273,944.633 288.485,943.461C283.395,940.13 278.112,937.004 273.44,933.149C268.679,929.222 264.552,924.523 260.152,920.159C257.022,917.055 253.976,913.861 250.759,910.854C244.783,905.27 239.173,899.358 235.98,891.724C234.247,887.581 233.346,883.092 232.058,878.761C228.457,866.636 224.874,854.507 221.238,842.394C219.322,836.005 216.952,829.74 216.372,823.005C216.286,822.005 215.709,820.982 215.151,820.097C208.798,809.984 204.825,798.968 201.809,787.437C199.938,780.284 197.742,773.219 196.411,765.933C195.496,760.924 192.756,757.473 187.991,755.63C186.88,755.199 185.839,754.549 184.7,754.227C179.347,752.716 175.54,749.383 172.738,744.65C170.672,741.159 168.404,737.784 166.101,734.44C165.306,733.285 164.287,732.154 163.119,731.4C157.304,727.655 152.651,722.725 148.48,717.305C146.985,715.36 145.201,714.059 142.928,713.08C139.765,711.715 136.579,710.19 133.811,708.175C131.461,706.465 129.564,704.06 127.73,701.752C127.074,700.931 126.944,699.484 126.998,698.341C127.25,692.989 127.406,687.615 128.057,682.305C128.985,674.756 127.656,667.837 123.451,661.486C122.198,659.595 120.971,657.685 119.706,655.8C115.83,650.03 114.222,643.403 112.621,636.798C112.257,635.299 111.721,634.186 110.536,633.275C106.283,629.999 102.043,626.706 97.8137,623.398C91.9161,618.788 88.6685,612.836 88.6725,605.248C88.6765,601.778 88.7524,598.307 88.6565,594.841C88.4746,588.282 88.4587,581.701 87.8111,575.188C87.5713,572.76 86.0504,570.289 84.6095,568.183C80.9002,562.771 75.5602,559.098 70.2641,555.388C64.4964,551.349 58.7606,547.25 53.8382,542.148C50.8545,539.056 50.7665,537.594 53.7603,534.65C55.7169,532.729 57.8633,531.002 59.9218,529.188C60.907,528.32 61.9223,527.483 62.8596,526.566C65.014,524.461 66.5668,522.179 64.7902,519.043C64.6183,518.741 64.5024,518.36 64.5044,518.016C64.5303,513.959 62.4339,511.081 59.2962,508.867C53.3686,504.684 53.4925,498.85 54.9874,492.779C55.9827,488.732 57.5435,484.827 58.6027,480.792C59.0384,479.135 58.8725,477.306 58.8865,475.553C58.9045,473.525 58.4988,471.438 58.8485,469.478C59.3941,466.41 58.7666,463.546 57.9372,460.722C55.8208,453.508 53.3706,446.429 49.9611,439.672C46.6536,433.119 44.8109,426.094 44.8949,418.669C44.9248,415.919 44.5911,413.357 43.2701,410.787C42.2248,408.753 41.9191,406.279 41.5693,403.956C40.9318,399.717 40.3422,395.461 40.0564,391.188C39.8906,388.726 40.0964,386.167 40.594,383.747C41.5533,379.079 42.8724,374.484 43.9795,369.844C45.1207,365.075 45.8621,360.241 45.5863,355.322C45.3885,351.799 46.3578,348.743 48.6201,346.045C50.081,344.302 50.7565,342.116 51.8157,340.169C54.7116,334.843 57.8113,329.565 61.4206,324.707C65.7554,318.867 69.067,312.516 71.3413,305.751C73.048,300.671 76.0199,296.744 79.4053,292.87C81.8375,290.089 84.0139,287.085 86.3162,284.193C88.2468,281.771 90.0974,279.273 92.1619,276.968C97.5759,270.927 102.96,264.845 108.606,259.023C113.003,254.489 117.691,250.224 122.414,246.023C125.809,243.005 130.088,241.708 134.481,240.923C142.351,239.514 150.231,238.145 158.127,236.886C160.479,236.51 162.368,235.651 163.991,233.86C167.284,230.229 170.57,226.659 172.387,221.955C173.284,219.633 174.567,217.428 175.896,215.31C176.939,213.645 177.187,212.064 176.59,210.22C176.078,208.633 175.678,207.002 175.34,205.365C174.987,203.652 174.569,201.89 175.692,200.359" style="fill:rgb(51,51,50);"/>
                </g>
                <g>
                    <path d="M513.249,1140.94C515.907,1141.39 519.097,1141.8 522.221,1142.49C529.781,1144.19 537.398,1145.72 544.826,1147.89C551.093,1149.73 557.109,1152.41 563.264,1154.63C568.225,1156.42 573.329,1157.48 578.627,1157.8C582.548,1158.03 586.491,1158.47 590.33,1159.27C597.355,1160.74 604.402,1161.8 611.581,1162.05C615.274,1162.18 619.069,1162.06 622.623,1162.89C629.168,1164.41 635.979,1163.93 642.398,1165.58C648.789,1167.21 654.771,1166.07 661.022,1165.21C670.235,1163.93 678.827,1160.71 687.423,1157.6C695.477,1154.68 703.571,1151.51 710.975,1147.27C717.335,1143.64 723.882,1140.73 730.591,1137.95C734.976,1136.13 739.023,1133.49 743.197,1131.17C750.188,1127.3 757.131,1123.34 764.16,1119.54C765.815,1118.64 767.683,1118.02 769.526,1117.62C774.998,1116.43 780.062,1113.88 785.732,1113.27C789.911,1112.82 793.768,1114.06 797.745,1114.63C798.632,1114.75 799.818,1116.4 799.973,1117.48C800.843,1123.45 799.368,1129.99 792.005,1132.31C789.113,1133.23 786.511,1135.11 783.841,1136.66C773.829,1142.47 763.924,1148.45 753.204,1152.94C748.701,1154.83 744.439,1157.29 739.99,1159.32C734.454,1161.85 728.884,1164.34 723.232,1166.59C720.154,1167.82 716.879,1168.56 713.675,1169.46C713.134,1169.62 712.468,1169.61 711.925,1169.45C705.353,1167.55 698.886,1169.02 692.433,1170.09C687.141,1170.97 681.813,1171.81 676.637,1173.18C669.046,1175.19 661.558,1177.6 654.069,1179.97C651.637,1180.74 649.313,1180.96 646.759,1180.69C641.664,1180.15 636.534,1179.97 631.412,1179.69C623.792,1179.28 616.173,1178.92 608.655,1177.4C605.082,1176.69 601.494,1177.11 598.097,1178.32C592.853,1180.19 587.644,1181.43 582.013,1180.14C579.964,1179.67 577.726,1179.99 575.575,1180C570.297,1180.02 565.285,1178.81 560.143,1177.66C554.213,1176.32 548.805,1173.46 542.746,1172.65C538.147,1172.04 533.622,1170.85 529.068,1169.91C528.716,1169.84 528.358,1169.78 528.023,1169.66C523.278,1167.99 518.462,1166.66 513.381,1166.65C507.554,1166.64 502.184,1164.44 496.614,1163.2C496.148,1163.09 495.694,1162.8 495.241,1162.81C491.176,1162.91 488.64,1159.83 485.452,1158.12C485.062,1157.92 484.535,1157.39 484.569,1157.06C484.794,1154.87 484.649,1152.42 485.618,1150.57C486.547,1148.81 488.46,1147.18 490.322,1146.36C495.203,1144.2 500.109,1141.91 505.571,1141.5C507.933,1141.32 510.294,1141.15 513.249,1140.94" style="fill:rgb(51,51,50);"/>
                </g>
                <g>
                    <path d="M695.174,441.828C690.777,443.856 687.473,442.247 684.282,440.842C683.42,440.463 682.873,438.954 682.565,437.855C682.209,436.582 683.604,435.111 684.887,435.468C687.503,436.2 690.143,437.011 692.555,438.226C693.625,438.764 694.156,440.365 695.174,441.828" style="fill:rgb(51,51,50);"/>
                </g>
                <g>
                    <path d="M165.366,437.826C163.943,442.375 160.352,444.787 157.414,447.683C155.128,449.935 152.531,451.87 150.165,454.046C149.41,454.741 148.724,455.681 148.387,456.642C147.223,459.956 147.805,460.513 151.248,461.582C157.728,463.595 163.987,462.116 170.314,460.923C174.068,460.213 177.663,460.921 179.869,464.178C181.354,466.367 182.507,469.107 182.797,471.713C183.299,476.218 185.885,479.427 188.555,482.547C189.682,483.866 191.834,484.393 193.607,485.045C195.156,485.619 196.809,486.05 198.45,486.216C207.473,487.129 216.51,487.893 225.593,487.181C227.358,487.042 229.131,486.974 230.884,486.748C234.261,486.308 236.787,484.004 239.159,482.027C243.852,478.11 249.11,475.138 254.208,471.901C257.014,470.118 258.705,470.524 261.181,472.758C262.146,473.631 263.22,474.409 264.327,475.096C267.656,477.165 269.571,482.239 268.206,485.732C268.004,486.25 267.556,486.794 267.077,487.065C264.816,488.335 262.624,490.131 260.188,490.605C253.517,491.9 246.954,493.505 240.48,495.537C239.461,495.857 238.39,496.015 237.353,496.279C234.465,497.012 231.725,497.744 230.172,500.857C229.303,502.604 227.642,503.901 225.196,503.629C223.825,503.475 222.262,503.713 220.995,504.261C216.3,506.287 211.342,507.159 206.35,507.015C200.342,506.843 194.287,507.269 188.387,504.928C184.908,503.547 184.35,501.017 183.688,498.165C183.531,497.486 183.623,496.736 183.662,496.021C184.038,489.204 179.671,485.615 173.296,484.875C169.409,484.423 165.41,484.198 161.709,483.06C154.006,480.698 147.661,475.982 142.509,469.866C140.716,467.738 139.453,464.986 138.58,462.312C137.644,459.456 138.03,456.542 139.661,453.732C143.436,447.227 148.528,441.927 154.178,437.104C156.361,435.242 157.712,435.264 160.238,436.651C160.809,436.965 161.541,436.993 162.202,437.14C163.218,437.366 164.237,437.582 165.366,437.826" style="fill:rgb(51,51,50);"/>
                </g>
                <g>
                    <path d="M264.062,589.469C265.343,591.689 265.511,593.568 264.843,595.654C264.343,597.219 264.196,598.912 264.016,600.558C263.656,603.84 262.057,606.298 259.477,608.323C255.522,611.426 251.131,612.426 246.199,611.85C243.263,611.506 240.431,611.356 237.911,609.356C236.726,608.413 234.843,608.181 233.232,607.979C229.357,607.495 228.592,606.706 227.844,602.761C227.357,600.191 226.891,597.683 227.245,595.048C227.497,593.17 228.37,592.089 230.211,591.517C235.547,589.864 240.819,589.021 246.241,591.299C248.477,592.239 250.791,592.149 253.12,590.928C256.529,589.137 260.206,588.567 264.062,589.469" style="fill:rgb(51,51,50);"/>
                </g>
                <g>
                    <path d="M214.784,577.42L214.784,581.419C213.507,580.857 212.617,580.466 211.31,579.89C209.787,582.1 208.241,584.347 206.54,586.817C204.949,580.5 209.026,576.029 214.784,577.42" style="fill:rgb(51,51,50);"/>
                </g>
                <g>
                    <path d="M760.266,283.868C757.416,283.533 755.222,281.978 753.203,280.089C748.997,276.154 745.413,271.721 743.349,266.311C741.46,261.365 742.951,258.633 747.905,257.09C748.583,256.878 749.262,256.666 749.964,256.449C751.693,257.214 752.744,258.479 753.036,260.416C753.669,264.633 756.743,267.215 759.581,269.919C764.091,274.211 764.349,278.958 760.266,283.868" style="fill:rgb(51,51,50);"/>
                </g>
            </g>
        </g>
    </g>
</svg>
